<?xml version="1.0" encoding="utf-8"?>
<!-- Generator: Adobe Illustrator 23.0.1, SVG Export Plug-In . SVG Version: 6.00 Build 0)  -->
<svg version="1.1" id="Camada_1" xmlns="http://www.w3.org/2000/svg" xmlns:xlink="http://www.w3.org/1999/xlink" x="0px" y="0px"
	 viewBox="0 0 654 215.8" style="enable-background:new 0 0 654 215.8;" xml:space="preserve">
<style type="text/css">
	.st0{fill:#E7F0E8;}
	.st1{fill:#C5DAC7;}
	.st2{fill:none;stroke:#008900;stroke-width:11;stroke-linejoin:round;stroke-miterlimit:10;}
	.st3{stroke:#000000;stroke-width:4;stroke-miterlimit:10;}
</style>
<path id="XMLID_50_" class="st0" d="M202.5,49.3c0,0.4,0,0.9,0,1.3c0,0.2,0,0.4-0.4,0.3c-0.1-0.1-0.2-0.3-0.2-0.4
	C202.2,50.1,202.4,49.7,202.5,49.3z"/>
<path id="XMLID_49_" class="st1" d="M208.5,49.9c0,0.2,0,0.5-0.2,0.4c-0.4-0.2-0.4-0.6-0.4-1.1C208.1,49.4,208.3,49.6,208.5,49.9z"
	/>
<g>
	<polyline class="st2" points="58.6,37.6 199.2,37.6 199.2,161.6 149.6,161.6 	"/>
	<circle class="st2" cx="240.5" cy="161.6" r="16.5"/>
	<circle class="st2" cx="108.2" cy="161.6" r="16.5"/>
	<polyline class="st2" points="199.2,161.6 199.2,70.7 248.7,70.7 281.8,112 281.8,161.6 257,161.6 	"/>
	<line class="st2" x1="75.2" y1="69.8" x2="174.2" y2="69.8"/>
	<line class="st2" x1="58.6" y1="105.3" x2="161.8" y2="105.3"/>
</g>
<g>
	<path class="st3" d="M368.4,105.4c0,5.2-0.7,9.7-2,13.7s-3.3,7.2-5.9,9.9c-2.6,2.7-5.8,4.7-9.6,6c-3.8,1.4-8.4,2-13.6,2H325
		c-0.6,0-1.2-0.2-1.8-0.6c-0.6-0.4-0.9-1.2-0.9-2.4V78.6c0-1.1,0.3-1.9,0.9-2.4c0.6-0.4,1.2-0.6,1.8-0.6h13.2
		c5.3,0,9.9,0.7,13.5,2.1s6.8,3.4,9.2,6.1s4.3,5.7,5.6,9.4C367.8,96.9,368.4,100.9,368.4,105.4z M362.1,105.7c0-3.6-0.5-6.9-1.4-10
		c-0.9-3.1-2.3-5.7-4.3-7.9c-1.9-2.2-4.4-4-7.3-5.2c-2.9-1.3-6.7-1.9-11.3-1.9h-9.7v51.1h9.7c4.3,0,7.9-0.5,10.9-1.5
		c3-1,5.4-2.6,7.4-4.8c2-2.2,3.5-4.9,4.4-8.1S362.1,110.3,362.1,105.7z"/>
	<path class="st3" d="M416.4,134.5c0,0.4,0,0.8-0.1,1.1c-0.1,0.3-0.2,0.6-0.3,0.8c-0.1,0.2-0.3,0.4-0.5,0.5s-0.4,0.2-0.6,0.2h-29.4
		c-0.6,0-1.2-0.2-1.8-0.6s-0.9-1.2-0.9-2.4V78.6c0-1.1,0.3-1.9,0.9-2.4s1.2-0.6,1.8-0.6h29c0.2,0,0.4,0.1,0.6,0.2
		c0.2,0.1,0.4,0.3,0.5,0.5c0.1,0.2,0.2,0.5,0.3,0.8c0.1,0.3,0.1,0.7,0.1,1.2c0,0.4,0,0.8-0.1,1.1c-0.1,0.3-0.2,0.6-0.3,0.8
		c-0.1,0.2-0.3,0.4-0.5,0.5c-0.2,0.1-0.4,0.2-0.6,0.2h-25.8v21.6h22.3c0.3,0,0.5,0.1,0.7,0.2c0.2,0.1,0.4,0.3,0.5,0.5
		s0.2,0.5,0.3,0.8c0.1,0.3,0.1,0.7,0.1,1.2c0,0.4,0,0.8-0.1,1.1c-0.1,0.3-0.2,0.5-0.3,0.7c-0.1,0.2-0.3,0.3-0.5,0.4
		c-0.2,0.1-0.4,0.1-0.7,0.1h-22.3v24.5h26.2c0.2,0,0.4,0.1,0.6,0.2c0.2,0.1,0.4,0.3,0.5,0.5c0.1,0.2,0.3,0.5,0.3,0.8
		C416.3,133.7,416.4,134.1,416.4,134.5z"/>
	<path class="st3" d="M462.1,120.5c0,2.7-0.5,5.2-1.5,7.3c-1,2.2-2.4,4-4.2,5.5c-1.8,1.5-4,2.7-6.5,3.4c-2.5,0.8-5.2,1.2-8.2,1.2
		c-2,0-3.9-0.2-5.7-0.5c-1.8-0.4-3.4-0.8-4.8-1.3c-1.4-0.5-2.6-1-3.5-1.5c-1-0.5-1.6-1-2-1.3c-0.4-0.4-0.6-0.8-0.8-1.3
		s-0.2-1.1-0.2-1.8c0-0.5,0-1,0.1-1.3c0.1-0.3,0.2-0.6,0.3-0.9c0.1-0.2,0.3-0.4,0.4-0.5c0.2-0.1,0.4-0.1,0.6-0.1
		c0.5,0,1.1,0.3,1.9,0.8c0.8,0.6,1.9,1.2,3.2,1.8c1.3,0.6,2.9,1.3,4.7,1.8c1.8,0.6,4,0.8,6.4,0.8c2,0,3.8-0.3,5.4-0.8
		c1.7-0.5,3.1-1.3,4.3-2.3c1.2-1,2.1-2.2,2.8-3.6s1-3.1,1-4.9c0-1.9-0.4-3.5-1.3-4.9c-0.8-1.4-2-2.6-3.3-3.6c-1.4-1-2.9-2-4.7-2.8
		c-1.8-0.8-3.5-1.7-5.4-2.5c-1.8-0.8-3.6-1.7-5.4-2.7c-1.7-1-3.3-2.1-4.7-3.4c-1.4-1.3-2.5-2.9-3.3-4.6c-0.8-1.8-1.3-3.9-1.3-6.3
		c0-2.4,0.4-4.5,1.3-6.4c0.9-1.9,2.1-3.5,3.7-4.8c1.6-1.3,3.5-2.3,5.7-3c2.2-0.7,4.7-1,7.3-1c1.3,0,2.7,0.1,4,0.4
		c1.4,0.3,2.6,0.6,3.9,1c1.2,0.4,2.3,0.8,3.3,1.3c1,0.5,1.6,0.9,1.9,1.2c0.3,0.3,0.5,0.5,0.6,0.7s0.2,0.3,0.2,0.5
		c0.1,0.2,0.1,0.5,0.1,0.8c0,0.3,0,0.7,0,1.1c0,0.4,0,0.8-0.1,1.1c0,0.3-0.1,0.6-0.2,0.9c-0.1,0.2-0.2,0.4-0.4,0.5
		c-0.1,0.1-0.3,0.2-0.5,0.2c-0.4,0-0.9-0.2-1.6-0.7c-0.7-0.5-1.6-1-2.7-1.5c-1.1-0.6-2.4-1.1-3.9-1.5c-1.5-0.5-3.3-0.7-5.2-0.7
		c-1.9,0-3.6,0.3-5,0.8c-1.4,0.5-2.6,1.2-3.5,2.1c-0.9,0.9-1.6,1.9-2.1,3.1c-0.5,1.2-0.7,2.4-0.7,3.7c0,1.9,0.4,3.5,1.3,4.9
		c0.8,1.4,2,2.6,3.4,3.6c1.4,1,3,2,4.7,2.8c1.8,0.8,3.6,1.7,5.4,2.5c1.8,0.8,3.6,1.7,5.4,2.7c1.8,1,3.3,2.1,4.7,3.4
		c1.4,1.3,2.5,2.9,3.4,4.6C461.7,116,462.1,118.1,462.1,120.5z"/>
	<path class="st3" d="M516.5,128.7c0,0.3,0,0.7,0,1c0,0.3-0.1,0.5-0.1,0.8s-0.2,0.4-0.3,0.6c-0.1,0.2-0.3,0.4-0.6,0.7
		c-0.3,0.3-1,0.8-2,1.5c-1,0.7-2.3,1.4-3.9,2c-1.6,0.7-3.4,1.2-5.4,1.7c-2,0.5-4.3,0.7-6.8,0.7c-4,0-7.5-0.7-10.7-2
		c-3.2-1.3-5.9-3.3-8.2-5.9c-2.3-2.6-4-5.8-5.2-9.6s-1.8-8.1-1.8-13c0-5,0.6-9.5,1.9-13.5c1.3-4,3.1-7.3,5.5-10.1
		c2.3-2.8,5.2-4.9,8.5-6.4c3.3-1.5,6.9-2.2,10.9-2.2c1.9,0,3.7,0.2,5.5,0.5c1.8,0.3,3.4,0.8,4.9,1.3c1.5,0.5,2.8,1.2,4,1.9
		c1.2,0.7,2,1.3,2.4,1.7c0.4,0.4,0.7,0.7,0.8,0.9c0.1,0.2,0.2,0.4,0.3,0.6c0.1,0.2,0.1,0.5,0.1,0.8c0,0.3,0,0.6,0,1
		c0,0.4,0,0.8-0.1,1.2s-0.1,0.6-0.2,0.9c-0.1,0.2-0.3,0.4-0.4,0.5c-0.2,0.1-0.4,0.2-0.6,0.2c-0.5,0-1.1-0.3-1.9-1
		c-0.8-0.6-1.9-1.4-3.3-2.2c-1.3-0.8-3-1.5-4.9-2.2c-1.9-0.6-4.3-1-6.9-1c-2.9,0-5.7,0.6-8.1,1.7s-4.6,2.9-6.3,5.1
		c-1.8,2.2-3.1,5-4.1,8.3c-1,3.3-1.5,7.1-1.5,11.4c0,4.1,0.5,7.7,1.4,10.9c0.9,3.2,2.2,5.8,3.9,8c1.7,2.2,3.8,3.8,6.4,5
		c2.5,1.1,5.4,1.7,8.6,1.7c2.6,0,4.9-0.3,6.9-1s3.6-1.4,5-2.2c1.4-0.8,2.5-1.5,3.4-2.2c0.9-0.6,1.6-1,2.1-1c0.2,0,0.4,0,0.5,0.1
		s0.2,0.2,0.3,0.4c0.1,0.2,0.1,0.5,0.2,0.8S516.5,128.2,516.5,128.7z"/>
	<path class="st3" d="M578.2,105.6c0,4.9-0.6,9.4-1.7,13.3c-1.2,4-2.9,7.4-5.2,10.2c-2.3,2.8-5.2,5-8.7,6.5
		c-3.5,1.5-7.6,2.3-12.2,2.3c-4.7,0-8.7-0.7-12-2.2c-3.4-1.4-6.1-3.5-8.3-6.2c-2.2-2.7-3.7-5.9-4.8-9.8c-1-3.9-1.5-8.2-1.5-13.1
		c0-4.8,0.6-9.2,1.7-13.1c1.1-3.9,2.9-7.3,5.2-10c2.3-2.8,5.2-4.9,8.7-6.4c3.5-1.5,7.6-2.3,12.3-2.3c4.6,0,8.5,0.7,11.9,2.1
		c3.3,1.4,6.1,3.5,8.3,6.1c2.2,2.7,3.8,5.9,4.9,9.7C577.7,96.6,578.2,100.9,578.2,105.6z M571.9,106.2c0-3.6-0.3-7.1-1-10.2
		c-0.7-3.2-1.8-6-3.5-8.3c-1.6-2.4-3.7-4.2-6.4-5.6c-2.7-1.3-5.9-2-9.9-2c-3.9,0-7.2,0.7-9.8,2.1c-2.7,1.4-4.8,3.3-6.5,5.7
		c-1.7,2.4-2.9,5.1-3.6,8.3c-0.7,3.2-1.1,6.5-1.1,10c0,3.7,0.3,7.2,1,10.4c0.7,3.2,1.8,6,3.4,8.4c1.6,2.4,3.7,4.2,6.4,5.6
		c2.7,1.3,6,2,10,2c4,0,7.3-0.7,10-2.2s4.9-3.4,6.5-5.8s2.8-5.2,3.5-8.4C571.5,113,571.9,109.7,571.9,106.2z"/>
</g>
</svg>
