<?xml version="1.0" encoding="utf-8"?>
<!-- Generator: Adobe Illustrator 19.0.0, SVG Export Plug-In . SVG Version: 6.00 Build 0)  -->
<svg version="1.1" id="Camada_1" xmlns="http://www.w3.org/2000/svg" xmlns:xlink="http://www.w3.org/1999/xlink" x="0px" y="0px"
	 viewBox="-115 333.3 380.2 126.7" style="enable-background:new -115 333.3 380.2 126.7;" xml:space="preserve">
<style type="text/css">
	.st0{fill:#E7F0E8;}
	.st1{fill-opacity:0;stroke:#009543;}
	.st2{fill-opacity:0;}
	.st3{fill-opacity:0;stroke:#009543;stroke-width:11;}
	.st4{enable-background:new    ;}
	.st5{fill:#222222;}
</style>
<g>
	<g>
		<g>
			<path id="b1IAi1mGB5" class="st0" d="M34,343.1c0,0.2,0,0.3-0.4,0.3c-0.1-0.1-0.2-0.3-0.2-0.4c0.3-0.3,0.5-0.7,0.5-1
				C34,342.3,34,342.7,34,343.1z"/>
		</g>
		<g>
			<g>
				<path id="b1IAi1mGB5_1_" class="st1" d="M34,343.1c0,0.2,0,0.3-0.4,0.3c-0.1-0.1-0.2-0.3-0.2-0.4c0.3-0.3,0.5-0.7,0.5-1
					C34,342.3,34,342.7,34,343.1z"/>
			</g>
		</g>
	</g>
	<g>
		<g>
			<path id="c6SMKevyzH" class="st2" d="M-88.3,338.3C-93.1,338.3-93.1,338.3-88.3,338.3c57.7,0,93.8,0,108.2,0
				c6.2,0,11.3,5.1,11.3,11.5c0,18.1,0,61.4,0,79.6c0,6-4.8,10.9-10.7,10.9c-7.7,0-26.1,0-38.4,0c-8.2,0-3.1,0,15.2,0"/>
		</g>
		<g>
			<g>
				<path id="c6SMKevyzH_1_" class="st3" d="M-88.3,338.3C-93.1,338.3-93.1,338.3-88.3,338.3c57.7,0,93.8,0,108.2,0
					c6.2,0,11.3,5.1,11.3,11.5c0,18.1,0,61.4,0,79.6c0,6-4.8,10.9-10.7,10.9c-7.7,0-26.1,0-38.4,0c-8.2,0-3.1,0,15.2,0"/>
			</g>
		</g>
	</g>
	<g>
		<g>
			<path id="a4vLOIWfg3" class="st2" d="M64.6,425.8c-8.1,0-14.6,6.5-14.6,14.5c0,8,6.6,14.5,14.6,14.5s14.6-6.5,14.6-14.5
				C79.2,432.3,72.7,425.8,64.6,425.8z"/>
		</g>
		<g>
			<g>
				<path id="a4vLOIWfg3_1_" class="st3" d="M64.6,425.8c-8.1,0-14.6,6.5-14.6,14.5c0,8,6.6,14.5,14.6,14.5s14.6-6.5,14.6-14.5
					C79.2,432.3,72.7,425.8,64.6,425.8z"/>
			</g>
		</g>
	</g>
	<g>
		<g>
			<path id="b1upSLU4Pa" class="st2" d="M-49.6,425.8c-8.1,0-14.6,6.5-14.6,14.5c0,8,6.6,14.5,14.6,14.5s14.6-6.5,14.6-14.5
				C-35,432.3-41.5,425.8-49.6,425.8z"/>
		</g>
		<g>
			<g>
				<path id="b1upSLU4Pa_1_" class="st3" d="M-49.6,425.8c-8.1,0-14.6,6.5-14.6,14.5c0,8,6.6,14.5,14.6,14.5s14.6-6.5,14.6-14.5
					C-35,432.3-41.5,425.8-49.6,425.8z"/>
			</g>
		</g>
	</g>
	<g>
		<g>
			<path id="c881DboKn" class="st2" d="M31.1,427.6v-67c15.6,0,25.4,0,29.3,0c6.9,0,13.4,3,18,8.2c3.9,4.5,10,11.4,14.3,16.3
				c3.4,3.9,5.3,8.9,5.3,14c0,5.7,0,12.6,0,17.8c0,6-4.7,10.8-10.6,10.9c-2.2,0-7.6,0.1-16.2,0.3"/>
		</g>
		<g>
			<g>
				<path id="c881DboKn_1_" class="st3" d="M31.1,427.6v-67c15.6,0,25.4,0,29.3,0c6.9,0,13.4,3,18,8.2c3.9,4.5,10,11.4,14.3,16.3
					c3.4,3.9,5.3,8.9,5.3,14c0,5.7,0,12.6,0,17.8c0,6-4.7,10.8-10.6,10.9c-2.2,0-7.6,0.1-16.2,0.3"/>
			</g>
		</g>
	</g>
	<g>
		<g>
			<path id="iafHzClyY" class="st2" d="M-60.1,368.9c-8.4,0-6.9,0,4.4,0h39h26.8c3,0,2.8,0-0.5,0"/>
		</g>
		<g>
			<g>
				<path id="iafHzClyY_1_" class="st3" d="M-60.1,368.9c-8.4,0-6.9,0,4.4,0h39h26.8c3,0,2.8,0-0.5,0"/>
			</g>
		</g>
	</g>
	<g>
		<g>
			<path id="f23Hy33PU" class="st2" d="M-88.6,399.4c-4.3,0-6,0-5.1,0h91.6c5,0,3,0-6.1,0"/>
		</g>
		<g>
			<g>
				<path id="f23Hy33PU_1_" class="st3" d="M-88.6,399.4c-4.3,0-6,0-5.1,0h91.6c5,0,3,0-6.1,0"/>
			</g>
		</g>
	</g>
	<g>
		<g>
			<path id="bQNjAOtjn" class="st3" d="M-138,302"/>
		</g>
		<g>
			<g>
				<path id="bQNjAOtjn_1_" class="st3" d="M-138,302"/>
			</g>
		</g>
	</g>
	<g>
		<g>
			<path id="c3DjQLHA4" class="st3" d="M-138,302"/>
		</g>
		<g>
			<g>
				<path id="c3DjQLHA4_1_" class="st3" d="M-138,302"/>
			</g>
		</g>
	</g>
	<g id="a5qA9YzjAi">
		<g>
			<g class="st4">
				<path class="st5" d="M129.3,427.3h-14c-3.6,0-5.4-1.6-5.4-4.8V395c0-3.2,1.8-4.8,5.4-4.8c3.6,0,5.4,1.6,5.4,4.8v23.6h8.5
					c2.3,0,3.4,1.5,3.4,4.4S131.5,427.3,129.3,427.3z"/>
				<path class="st5" d="M172,408.4c0,5.7-1.9,10.4-5.6,13.9c-3.7,3.5-8.4,5.3-14.1,5.3s-10.4-1.8-14.1-5.3
					c-3.7-3.5-5.5-8.2-5.5-13.9c0-5.7,1.8-10.4,5.5-13.9c3.7-3.6,8.4-5.3,14.2-5.3s10.5,1.8,14.1,5.3C170.2,398,172,402.7,172,408.4
					z M159,401.5c-1.6-1.8-3.8-2.7-6.6-2.7c-2.7,0-5,0.9-6.6,2.7c-1.7,1.8-2.5,4.1-2.5,6.9c0,2.8,0.8,5.1,2.5,6.9
					c1.7,1.8,3.9,2.7,6.6,2.7s4.9-0.9,6.6-2.7s2.5-4.1,2.5-6.9S160.7,403.3,159,401.5z"/>
				<path class="st5" d="M206.5,409.6v10.1c0,2.3-1.2,4.2-3.6,5.7s-6.4,2.3-11.9,2.3c-5.5,0-10.1-1.8-13.8-5.3
					c-3.7-3.5-5.5-8.2-5.5-13.9c0-5.7,1.8-10.4,5.5-13.9c3.7-3.6,8.1-5.3,13.2-5.3s9,0.8,11.7,2.4c2.7,1.6,4,3.1,4.1,4.5
					c0,1.4-0.4,2.7-1.4,3.8c-1,1.1-1.9,1.7-2.8,1.7s-2.3-0.4-4-1.3c-1.7-0.9-4.1-1.4-7-1.4s-5.1,0.9-6.5,2.7
					c-1.4,1.8-2.1,4.1-2.1,6.9c0,2.8,0.8,5.1,2.5,6.9c1.7,1.8,3.9,2.7,6.8,2.6c2.9,0,4.3-1.2,4.3-3.4c0-0.3,0-0.5-0.1-0.8h-1.7
					c-3.3,0-4.9-1.5-4.9-4.6s1.6-4.6,4.9-4.6h8.2C205.1,404.6,206.5,406.2,206.5,409.6z"/>
				<path class="st5" d="M216.5,396c-0.4,1.6-0.9,3.3-1.6,5.1s-1.8,2.6-3.3,2.6c-1.5,0-2.5-0.9-3.3-2.6c-0.7-1.7-1.3-3.4-1.6-5.1
					s-0.1-3,0.9-4.1c1-1.1,2.3-1.6,4-1.6s3,0.5,3.9,1.6C216.6,392.9,216.9,394.3,216.5,396z"/>
				<path class="st5" d="M255.6,408.4c0,5.7-1.9,10.4-5.6,13.9c-3.7,3.5-8.4,5.3-14.1,5.3c-5.7,0-10.4-1.8-14.1-5.3
					c-3.7-3.5-5.5-8.2-5.5-13.9c0-5.7,1.8-10.4,5.5-13.9c3.7-3.6,8.4-5.3,14.2-5.3c5.8,0,10.5,1.8,14.1,5.3
					C253.8,398,255.6,402.7,255.6,408.4z M242.6,401.5c-1.6-1.8-3.8-2.7-6.6-2.7c-2.7,0-5,0.9-6.6,2.7s-2.5,4.1-2.5,6.9
					c0,2.8,0.8,5.1,2.5,6.9c1.7,1.8,3.9,2.7,6.6,2.7s4.9-0.9,6.6-2.7s2.5-4.1,2.5-6.9S244.2,403.3,242.6,401.5z"/>
			</g>
		</g>
	</g>
</g>
</svg>
