<svg width="654" height="215.8" xmlns="http://www.w3.org/2000/svg">
 <style type="text/css">.st0{fill:#E7F0E8;}
	.st1{fill:#C5DAC7;}
	.st2{fill:none;stroke:#008900;stroke-width:11;stroke-linejoin:round;stroke-miterlimit:10;}
	.st3{stroke:#000000;stroke-width:4;stroke-miterlimit:10;}</style>

 <g>
  <title>background</title>
  <rect fill="none" id="canvas_background" height="402" width="582" y="-1" x="-1"/>
 </g>
 <g>
  <title>Layer 1</title>
  <path d="m202.5,49.3c0,0.4 0,0.9 0,1.3c0,0.2 0,0.4 -0.4,0.3c-0.1,-0.1 -0.2,-0.3 -0.2,-0.4c0.3,-0.4 0.5,-0.8 0.6,-1.2z" class="st0" id="XMLID_50_"/>
  <path d="m208.5,49.9c0,0.2 0,0.5 -0.2,0.4c-0.4,-0.2 -0.4,-0.6 -0.4,-1.1c0.2,0.2 0.4,0.4 0.6,0.7z" class="st1" id="XMLID_49_"/>
  <g id="svg_1">
   <polyline id="svg_2" points="58.67662615329027,37.523370794951916 199.27662462741137,37.523370794951916 199.27662462741137,161.52337842434645 149.6766337826848,161.52337842434645 " class="st2"/>
   <circle id="svg_3" r="16.5" cy="161.523372" cx="240.576628" class="st2"/>
   <circle id="svg_4" r="16.5" cy="161.523372" cx="108.276628" class="st2"/>
   <polyline id="svg_5" points="199.27662462741137,161.52337842434645 199.27662462741137,70.62336926907301 248.77662462741137,70.62336926907301 281.8766154721379,111.92337232083082 281.8766154721379,161.52337842434645 257.0766276791692,161.52337842434645 " class="st2"/>
   <line id="svg_6" y2="69.723372" x2="174.276628" y1="69.723372" x1="75.276628" class="st2"/>
   <line id="svg_7" y2="105.223372" x2="161.876628" y1="105.223372" x1="58.676628" class="st2"/>
  </g>
  <text style="cursor: move;" stroke="#000" transform="matrix(3.5894317626953125,0,0,3.5894317626953125,-827.3234481811523,-24.31638264656067) " font-weight="bold" xml:space="preserve" text-anchor="start" font-family="Arvo, sans-serif" font-size="24" id="svg_14" y="45.885959" x="314.889983" stroke-width="0" fill="#000000">LOG'O</text>
  <path id="svg_21" d="m332.728456,166.747366" opacity="0.5" fill-opacity="null" stroke-opacity="null" stroke-width="1.5" stroke="#000" fill="#000000"/>
  <path id="svg_27" d="m412.82052,44.011111" opacity="0.5" fill-opacity="null" stroke-opacity="null" stroke-width="1.5" stroke="#000" fill="#000000"/>
 </g>
</svg>